# Blender v2.79 (sub 0) OBJ File: 'arcodepuerta.blend'
# www.blender.org
mtllib arcodepuerta.mtl
o Cube.001_Cube.007
v -1.011568 6.040566 3.908013
v -1.011568 8.040565 3.908013
v -1.011568 6.040566 1.908013
v -1.011568 8.040565 1.908013
v 0.988432 6.040566 3.908013
v 0.988432 8.040565 3.908013
v 0.988432 6.040566 1.908013
v 0.988432 8.040565 1.908013
vn -1.0000 0.0000 0.0000
vn 0.0000 0.0000 -1.0000
vn 1.0000 0.0000 0.0000
vn 0.0000 0.0000 1.0000
vn 0.0000 -1.0000 0.0000
vn 0.0000 1.0000 0.0000
usemtl None
s off
f 1//1 2//1 4//1 3//1
f 3//2 4//2 8//2 7//2
f 7//3 8//3 6//3 5//3
f 5//4 6//4 2//4 1//4
f 3//5 7//5 5//5 1//5
f 8//6 4//6 2//6 6//6
o Cube_Cube.006
v -0.981789 6.050530 1.918572
v -0.981789 8.050529 1.918572
v -0.981789 6.050530 -0.081428
v -0.981789 8.050529 -0.081428
v 1.018211 6.050530 1.918572
v 1.018211 8.050529 1.918572
v 1.018211 6.050530 -0.081428
v 1.018211 8.050529 -0.081428
vn -1.0000 0.0000 0.0000
vn 0.0000 0.0000 -1.0000
vn 1.0000 0.0000 0.0000
vn 0.0000 0.0000 1.0000
vn 0.0000 -1.0000 0.0000
vn 0.0000 1.0000 0.0000
usemtl None
s off
f 9//7 10//7 12//7 11//7
f 11//8 12//8 16//8 15//8
f 15//9 16//9 14//9 13//9
f 13//10 14//10 10//10 9//10
f 11//11 15//11 13//11 9//11
f 16//12 12//12 10//12 14//12
o Cube.000_Cube.005
v 0.983735 0.045147 3.926852
v 0.983735 0.045147 5.926852
v -1.016265 0.045147 5.926852
v -1.016265 0.045147 3.926852
v 0.987841 8.066226 3.903394
v 0.987840 8.066226 5.903394
v -1.012160 8.066226 5.903393
v -1.012160 8.066226 3.903394
vn 0.0000 -1.0000 0.0000
vn 0.0000 1.0000 0.0000
vn 1.0000 -0.0005 0.0000
vn 0.0000 0.0029 1.0000
vn -1.0000 0.0005 -0.0000
vn 0.0000 -0.0029 -1.0000
usemtl Material
s off
f 17//13 18//13 19//13 20//13
f 21//14 24//14 23//14 22//14
f 17//15 21//15 22//15 18//15
f 18//16 22//16 23//16 19//16
f 19//17 23//17 24//17 20//17
f 21//18 17//18 20//18 24//18
o Cube.002
v 0.995567 0.028350 -2.031473
v 0.995567 0.028350 -0.031473
v -1.004433 0.028350 -0.031473
v -1.004433 0.028350 -2.031473
v 0.999673 8.049429 -2.054931
v 0.999671 8.049429 -0.054931
v -1.000328 8.049429 -0.054932
v -1.000328 8.049429 -2.054932
vn 0.0000 -1.0000 0.0000
vn 0.0000 1.0000 0.0000
vn 1.0000 -0.0005 0.0000
vn -0.0000 0.0029 1.0000
vn -1.0000 0.0005 -0.0000
vn 0.0000 -0.0029 -1.0000
usemtl Material
s off
f 25//19 26//19 27//19 28//19
f 29//20 32//20 31//20 30//20
f 25//21 29//21 30//21 26//21
f 26//22 30//22 31//22 27//22
f 27//23 31//23 32//23 28//23
f 29//24 25//24 28//24 32//24
