# Blender v2.79 (sub 0) OBJ File: 'escaleras.blend'
# www.blender.org
mtllib escaleras2.mtl
o Cube.011_Cube.014
v 17.015945 7.012393 -3.419225
v 16.965479 6.994052 4.664575
v 14.965478 6.994052 4.664574
v 15.015945 7.012393 -3.419225
v 17.015945 7.716764 -3.419224
v 16.965477 7.698423 4.664575
v 14.965478 7.698423 4.664574
v 15.015944 7.716764 -3.419225
vn 0.0000 -1.0000 -0.0023
vn -0.0000 1.0000 0.0023
vn 1.0000 -0.0000 0.0062
vn -0.0000 -0.0000 1.0000
vn -1.0000 0.0000 -0.0062
vn 0.0000 0.0000 -1.0000
usemtl Material
s off
f 1//1 2//1 3//1 4//1
f 5//2 8//2 7//2 6//2
f 1//3 5//3 6//3 2//3
f 2//4 6//4 7//4 3//4
f 3//5 7//5 8//5 4//5
f 5//6 1//6 4//6 8//6
o Cube.010_Cube.013
v 18.979939 7.692513 -3.419225
v 18.929472 7.674172 4.664575
v 16.929470 7.674172 4.664574
v 16.979939 7.692513 -3.419225
v 18.979939 8.396884 -3.419224
v 18.929470 8.378543 4.664575
v 16.929470 8.378543 4.664574
v 16.979939 8.396884 -3.419225
vn 0.0000 -1.0000 -0.0023
vn -0.0000 1.0000 0.0023
vn 1.0000 -0.0000 0.0062
vn -0.0000 -0.0000 1.0000
vn -1.0000 0.0000 -0.0062
vn 0.0000 0.0000 -1.0000
usemtl Material
s off
f 9//7 10//7 11//7 12//7
f 13//8 16//8 15//8 14//8
f 9//9 13//9 14//9 10//9
f 10//10 14//10 15//10 11//10
f 11//11 15//11 16//11 12//11
f 13//12 9//12 12//12 16//12
o Cube.009_Cube.012
v 15.006396 6.316424 -3.419225
v 14.955930 6.298084 4.664575
v 12.955930 6.298084 4.664574
v 13.006397 6.316424 -3.419225
v 15.006397 7.020796 -3.419224
v 14.955929 7.002455 4.664575
v 12.955930 7.002455 4.664574
v 13.006396 7.020796 -3.419225
vn 0.0000 -1.0000 -0.0023
vn -0.0000 1.0000 0.0023
vn 1.0000 -0.0000 0.0062
vn -0.0000 -0.0000 1.0000
vn -1.0000 0.0000 -0.0062
vn 0.0000 0.0000 -1.0000
usemtl Material
s off
f 17//13 18//13 19//13 20//13
f 21//14 24//14 23//14 22//14
f 17//15 21//15 22//15 18//15
f 18//16 22//16 23//16 19//16
f 19//17 23//17 24//17 20//17
f 21//18 17//18 20//18 24//18
o Cube.008_Cube.011
v 13.016515 5.597049 -3.419225
v 12.966048 5.578708 4.664575
v 10.966048 5.578708 4.664574
v 11.016516 5.597049 -3.419225
v 13.016516 6.301420 -3.419224
v 12.966047 6.283079 4.664575
v 10.966048 6.283079 4.664574
v 11.016515 6.301420 -3.419225
vn 0.0000 -1.0000 -0.0023
vn -0.0000 1.0000 0.0023
vn 1.0000 -0.0000 0.0062
vn -0.0000 -0.0000 1.0000
vn -1.0000 0.0000 -0.0062
vn 0.0000 0.0000 -1.0000
usemtl Material
s off
f 25//19 26//19 27//19 28//19
f 29//20 32//20 31//20 30//20
f 25//21 29//21 30//21 26//21
f 26//22 30//22 31//22 27//22
f 27//23 31//23 32//23 28//23
f 29//24 25//24 28//24 32//24
o Cube.007_Cube.010
v 5.003230 2.776849 -3.419225
v 4.952763 2.758508 4.664575
v 2.952763 2.758508 4.664574
v 3.003230 2.776849 -3.419225
v 5.003231 3.481220 -3.419224
v 4.952763 3.462879 4.664575
v 2.952763 3.462879 4.664574
v 3.003230 3.481220 -3.419225
vn 0.0000 -1.0000 -0.0023
vn -0.0000 1.0000 0.0023
vn 1.0000 -0.0000 0.0062
vn -0.0000 -0.0000 1.0000
vn -1.0000 -0.0000 -0.0062
vn 0.0000 0.0000 -1.0000
usemtl Material
s off
f 33//25 34//25 35//25 36//25
f 37//26 40//26 39//26 38//26
f 33//27 37//27 38//27 34//27
f 34//28 38//28 39//28 35//28
f 35//29 39//29 40//29 36//29
f 37//30 33//30 36//30 40//30
o Cube.006_Cube.009
v 6.993113 3.492083 -3.419225
v 6.942646 3.473742 4.664575
v 4.942646 3.473742 4.664574
v 4.993113 3.492083 -3.419225
v 6.993113 4.196454 -3.419224
v 6.942645 4.178113 4.664575
v 4.942645 4.178113 4.664574
v 4.993113 4.196454 -3.419225
vn 0.0000 -1.0000 -0.0023
vn -0.0000 1.0000 0.0023
vn 1.0000 -0.0000 0.0062
vn -0.0000 -0.0000 1.0000
vn -1.0000 -0.0000 -0.0062
vn 0.0000 0.0000 -1.0000
usemtl Material
s off
f 41//31 42//31 43//31 44//31
f 45//32 48//32 47//32 46//32
f 41//33 45//33 46//33 42//33
f 42//34 46//34 47//34 43//34
f 43//35 47//35 48//35 44//35
f 45//36 41//36 44//36 48//36
o Cube.005_Cube.008
v 10.992543 4.898517 -3.419225
v 10.942077 4.880176 4.664575
v 8.942077 4.880176 4.664574
v 8.992544 4.898517 -3.419225
v 10.992544 5.602888 -3.419224
v 10.942076 5.584547 4.664575
v 8.942077 5.584547 4.664574
v 8.992543 5.602888 -3.419225
vn 0.0000 -1.0000 -0.0023
vn -0.0000 1.0000 0.0023
vn 1.0000 -0.0000 0.0062
vn -0.0000 -0.0000 1.0000
vn -1.0000 0.0000 -0.0062
vn 0.0000 0.0000 -1.0000
usemtl Material
s off
f 49//37 50//37 51//37 52//37
f 53//38 56//38 55//38 54//38
f 49//39 53//39 54//39 50//39
f 50//40 54//40 55//40 51//40
f 51//41 55//41 56//41 52//41
f 53//42 49//42 52//42 56//42
o Cube.004_Cube.007
v 9.002661 4.190419 -3.419225
v 8.952194 4.172078 4.664575
v 6.952194 4.172078 4.664574
v 7.002661 4.190419 -3.419225
v 9.002662 4.894790 -3.419224
v 8.952193 4.876450 4.664575
v 6.952194 4.876450 4.664574
v 7.002661 4.894790 -3.419225
vn 0.0000 -1.0000 -0.0023
vn -0.0000 1.0000 0.0023
vn 1.0000 -0.0000 0.0062
vn -0.0000 -0.0000 1.0000
vn -1.0000 0.0000 -0.0062
vn 0.0000 0.0000 -1.0000
usemtl Material
s off
f 57//43 58//43 59//43 60//43
f 61//44 64//44 63//44 62//44
f 57//45 61//45 62//45 58//45
f 58//46 62//46 63//46 59//46
f 59//47 63//47 64//47 60//47
f 61//48 57//48 60//48 64//48
o Cube.002_Cube.003
v 1.015541 1.351312 -3.419225
v 0.965074 1.332972 4.664575
v -1.034926 1.332972 4.664574
v -0.984459 1.351312 -3.419225
v 1.015541 2.055683 -3.419224
v 0.965073 2.037343 4.664575
v -1.034926 2.037343 4.664574
v -0.984459 2.055683 -3.419225
vn 0.0000 -1.0000 -0.0023
vn -0.0000 1.0000 0.0023
vn 1.0000 -0.0000 0.0062
vn -0.0000 -0.0000 1.0000
vn -1.0000 -0.0000 -0.0062
vn 0.0000 0.0000 -1.0000
usemtl Material
s off
f 65//49 66//49 67//49 68//49
f 69//50 72//50 71//50 70//50
f 65//51 69//51 70//51 66//51
f 66//52 70//52 71//52 67//52
f 67//53 71//53 72//53 68//53
f 69//54 65//54 68//54 72//54
o Cube.001
v 3.005424 2.088253 -3.419225
v 2.954957 2.069913 4.664575
v 0.954957 2.069913 4.664574
v 1.005424 2.088253 -3.419225
v 3.005424 2.792625 -3.419224
v 2.954956 2.774284 4.664575
v 0.954956 2.774284 4.664574
v 1.005423 2.792625 -3.419225
vn 0.0000 -1.0000 -0.0023
vn -0.0000 1.0000 0.0023
vn 1.0000 -0.0000 0.0062
vn -0.0000 -0.0000 1.0000
vn -1.0000 -0.0000 -0.0062
vn 0.0000 0.0000 -1.0000
usemtl Material
s off
f 73//55 74//55 75//55 76//55
f 77//56 80//56 79//56 78//56
f 73//57 77//57 78//57 74//57
f 74//58 78//58 79//58 75//58
f 75//59 79//59 80//59 76//59
f 77//60 73//60 76//60 80//60
o Cube.000
v -0.994008 0.654899 -3.419225
v -1.044475 0.636558 4.664575
v -3.044475 0.636558 4.664574
v -2.994008 0.654899 -3.419225
v -0.994008 1.359270 -3.419224
v -1.044476 1.340930 4.664575
v -3.044475 1.340930 4.664574
v -2.994008 1.359270 -3.419225
vn 0.0000 -1.0000 -0.0023
vn -0.0000 1.0000 0.0023
vn 1.0000 0.0000 0.0062
vn -0.0000 -0.0000 1.0000
vn -1.0000 -0.0000 -0.0062
vn 0.0000 0.0000 -1.0000
usemtl Material
s off
f 81//61 82//61 83//61 84//61
f 85//62 88//62 87//62 86//62
f 81//63 85//63 86//63 82//63
f 82//64 86//64 87//64 83//64
f 83//65 87//65 88//65 84//65
f 85//66 81//66 84//66 88//66
o Cube.003_Cube.006
v -2.983891 -0.069336 -3.419225
v -3.034358 -0.087676 4.664575
v -5.034358 -0.087676 4.664574
v -4.983891 -0.069336 -3.419225
v -2.983890 0.635036 -3.419224
v -3.034358 0.616695 4.664575
v -5.034358 0.616695 4.664574
v -4.983891 0.635036 -3.419225
vn 0.0000 -1.0000 -0.0023
vn -0.0000 1.0000 0.0023
vn 1.0000 0.0000 0.0062
vn -0.0000 -0.0000 1.0000
vn -1.0000 -0.0000 -0.0062
vn 0.0000 0.0000 -1.0000
usemtl Material
s off
f 89//67 90//67 91//67 92//67
f 93//68 96//68 95//68 94//68
f 89//69 93//69 94//69 90//69
f 90//70 94//70 95//70 91//70
f 91//71 95//71 96//71 92//71
f 93//72 89//72 92//72 96//72
