# Blender v2.79 (sub 0) OBJ File: 'figuras.blend'
# www.blender.org
mtllib estrella1.mtl
o Cone.003
v -2.515179 2.620470 0.682690
v -4.514743 2.662227 1.682690
v -2.511106 2.815517 0.701904
v -2.507189 3.003069 0.758810
v -2.503579 3.175919 0.851220
v -2.500415 3.327422 0.975583
v -2.497818 3.451758 1.127120
v -2.495889 3.544147 1.300006
v -2.494701 3.601041 1.487599
v -2.494300 3.620251 1.682690
v -2.494701 3.601041 1.877780
v -2.495889 3.544147 2.065373
v -2.497818 3.451758 2.238260
v -2.500415 3.327422 2.389796
v -2.503579 3.175919 2.514159
v -2.507189 3.003069 2.606569
v -2.511106 2.815517 2.663475
v -2.515179 2.620469 2.682690
v -2.519252 2.425421 2.663475
v -2.523169 2.237869 2.606569
v -2.526778 2.065020 2.514159
v -2.529942 1.913516 2.389796
v -2.532539 1.789181 2.238259
v -2.534468 1.696791 2.065372
v -2.535656 1.639898 1.877779
v -2.536058 1.620687 1.682689
v -2.535656 1.639898 1.487598
v -2.534468 1.696792 1.300005
v -2.532539 1.789182 1.127118
v -2.529942 1.913518 0.975582
v -2.526778 2.065022 0.851219
v -2.523169 2.237871 0.758810
v -2.519252 2.425423 0.701904
vn -0.4436 0.0970 -0.8910
vn -0.4400 0.2691 -0.8567
vn -0.4366 0.4312 -0.7896
vn -0.4335 0.5771 -0.6921
vn -0.4309 0.7012 -0.5680
vn -0.4289 0.7987 -0.4220
vn -0.4275 0.8659 -0.2599
vn -0.4268 0.9001 -0.0878
vn -0.4268 0.9001 0.0878
vn -0.4275 0.8659 0.2599
vn -0.4289 0.7987 0.4220
vn -0.4309 0.7012 0.5680
vn -0.4335 0.5771 0.6921
vn -0.4366 0.4312 0.7896
vn -0.4400 0.2691 0.8567
vn -0.4436 0.0970 0.8910
vn -0.4472 -0.0784 0.8910
vn -0.4508 -0.2505 0.8567
vn -0.4542 -0.4126 0.7896
vn -0.4573 -0.5585 0.6921
vn -0.4598 -0.6826 0.5680
vn -0.4619 -0.7801 0.4220
vn -0.4633 -0.8472 0.2599
vn -0.4640 -0.8815 0.0878
vn -0.4640 -0.8815 -0.0878
vn -0.4633 -0.8472 -0.2599
vn -0.4619 -0.7801 -0.4220
vn -0.4598 -0.6826 -0.5680
vn -0.4573 -0.5585 -0.6921
vn -0.4542 -0.4126 -0.7896
vn -0.4508 -0.2505 -0.8567
vn -0.4472 -0.0784 -0.8910
vn 0.9998 -0.0209 -0.0000
usemtl None
s off
f 1//1 2//1 3//1
f 3//2 2//2 4//2
f 4//3 2//3 5//3
f 5//4 2//4 6//4
f 6//5 2//5 7//5
f 7//6 2//6 8//6
f 8//7 2//7 9//7
f 9//8 2//8 10//8
f 10//9 2//9 11//9
f 11//10 2//10 12//10
f 12//11 2//11 13//11
f 13//12 2//12 14//12
f 14//13 2//13 15//13
f 15//14 2//14 16//14
f 16//15 2//15 17//15
f 17//16 2//16 18//16
f 18//17 2//17 19//17
f 19//18 2//18 20//18
f 20//19 2//19 21//19
f 21//20 2//20 22//20
f 22//21 2//21 23//21
f 23//22 2//22 24//22
f 24//23 2//23 25//23
f 25//24 2//24 26//24
f 26//25 2//25 27//25
f 27//26 2//26 28//26
f 28//27 2//27 29//27
f 29//28 2//28 30//28
f 30//29 2//29 31//29
f 31//30 2//30 32//30
f 32//31 2//31 33//31
f 33//32 2//32 1//32
f 1//33 3//33 4//33 5//33 6//33 7//33 8//33 9//33 10//33 11//33 12//33 13//33 14//33 15//33 16//33 17//33 18//33 19//33 20//33 21//33 22//33 23//33 24//33 25//33 26//33 27//33 28//33 29//33 30//33 31//33 32//33 33//33
o Cone.002
v -0.475732 2.648324 2.677910
v 1.544581 2.617087 1.720120
v -0.471792 2.843480 2.659795
v -0.467192 3.031337 2.603956
v -0.462111 3.204676 2.512538
v -0.456743 3.356836 2.389055
v -0.451294 3.481969 2.238253
v -0.445975 3.575267 2.065926
v -0.440988 3.633144 1.878696
v -0.436526 3.653376 1.683760
v -0.432761 3.635185 1.488608
v -0.429836 3.579271 1.300740
v -0.427865 3.487782 1.127375
v -0.426924 3.364234 0.975176
v -0.427047 3.213376 0.849992
v -0.428231 3.041003 0.756633
v -0.430431 2.853741 0.698687
v -0.433561 2.658787 0.678382
v -0.437501 2.463631 0.696497
v -0.442100 2.275774 0.752337
v -0.447181 2.102435 0.843754
v -0.452549 1.950275 0.967237
v -0.457998 1.825142 1.118040
v -0.463318 1.731844 1.290367
v -0.468305 1.673967 1.477597
v -0.472766 1.653736 1.672533
v -0.476532 1.671926 1.867685
v -0.479456 1.727841 2.055554
v -0.481427 1.819330 2.228919
v -0.482369 1.942878 2.381117
v -0.482245 2.093737 2.506301
v -0.481061 2.266109 2.599660
v -0.478862 2.453371 2.657605
vn 0.4281 0.0750 0.9006
vn 0.4320 0.2472 0.8673
vn 0.4363 0.4097 0.8011
vn 0.4410 0.5561 0.7044
vn 0.4459 0.6808 0.5811
vn 0.4507 0.7791 0.4357
vn 0.4554 0.8471 0.2740
vn 0.4596 0.8822 0.1021
vn 0.4633 0.8832 -0.0734
vn 0.4663 0.8498 -0.2457
vn 0.4685 0.7835 -0.4082
vn 0.4698 0.6868 -0.5546
vn 0.4702 0.5634 -0.6794
vn 0.4696 0.4180 -0.7777
vn 0.4681 0.2562 -0.8457
vn 0.4657 0.0843 -0.8809
vn 0.4625 -0.0912 -0.8819
vn 0.4587 -0.2635 -0.8486
vn 0.4543 -0.4260 -0.7824
vn 0.4496 -0.5724 -0.6857
vn 0.4448 -0.6971 -0.5624
vn 0.4399 -0.7953 -0.4170
vn 0.4353 -0.8633 -0.2553
vn 0.4310 -0.8985 -0.0834
vn 0.4273 -0.8994 0.0921
vn 0.4243 -0.8661 0.2644
vn 0.4221 -0.7998 0.4269
vn 0.4208 -0.7030 0.5733
vn 0.4204 -0.5796 0.6981
vn 0.4210 -0.4342 0.7964
vn 0.4225 -0.2724 0.8644
vn 0.4249 -0.1005 0.8996
vn -0.9996 0.0182 -0.0210
usemtl None
s off
f 34//34 35//34 36//34
f 36//35 35//35 37//35
f 37//36 35//36 38//36
f 38//37 35//37 39//37
f 39//38 35//38 40//38
f 40//39 35//39 41//39
f 41//40 35//40 42//40
f 42//41 35//41 43//41
f 43//42 35//42 44//42
f 44//43 35//43 45//43
f 45//44 35//44 46//44
f 46//45 35//45 47//45
f 47//46 35//46 48//46
f 48//47 35//47 49//47
f 49//48 35//48 50//48
f 50//49 35//49 51//49
f 51//50 35//50 52//50
f 52//51 35//51 53//51
f 53//52 35//52 54//52
f 54//53 35//53 55//53
f 55//54 35//54 56//54
f 56//55 35//55 57//55
f 57//56 35//56 58//56
f 58//57 35//57 59//57
f 59//58 35//58 60//58
f 60//59 35//59 61//59
f 61//60 35//60 62//60
f 62//61 35//61 63//61
f 63//62 35//62 64//62
f 64//63 35//63 65//63
f 65//64 35//64 66//64
f 66//65 35//65 34//65
f 34//66 36//66 37//66 38//66 39//66 40//66 41//66 42//66 43//66 44//66 45//66 46//66 47//66 48//66 49//66 50//66 51//66 52//66 53//66 54//66 55//66 56//66 57//66 58//66 59//66 60//66 61//66 62//66 63//66 64//66 65//66 66//66
o Cone.001
v -1.476832 1.602273 2.674841
v -1.476832 -0.405485 1.690508
v -1.281741 1.602122 2.655627
v -1.094148 1.601677 2.598723
v -0.921261 1.600955 2.506316
v -0.769725 1.599982 2.381957
v -0.645362 1.598798 2.230425
v -0.552952 1.597446 2.057543
v -0.496046 1.595979 1.869956
v -0.476831 1.594454 1.674872
v -0.496046 1.592929 1.479787
v -0.552952 1.591462 1.292200
v -0.645361 1.590110 1.119318
v -0.769724 1.588926 0.967786
v -0.921261 1.587953 0.843427
v -1.094148 1.587231 0.751020
v -1.281741 1.586786 0.694116
v -1.476831 1.586636 0.674902
v -1.671922 1.586786 0.694116
v -1.859515 1.587231 0.751020
v -2.032402 1.587954 0.843427
v -2.183938 1.588926 0.967786
v -2.308301 1.590111 1.119318
v -2.400711 1.591463 1.292200
v -2.457617 1.592929 1.479788
v -2.476831 1.594455 1.674872
v -2.457616 1.595980 1.869956
v -2.400711 1.597446 2.057544
v -2.308300 1.598798 2.230425
v -2.183938 1.599983 2.381957
v -2.032401 1.600955 2.506316
v -1.859514 1.601678 2.598723
v -1.671921 1.602122 2.655627
vn 0.0878 -0.4385 0.8944
vn 0.2599 -0.4388 0.8602
vn 0.4220 -0.4393 0.7930
vn 0.5680 -0.4401 0.6955
vn 0.6921 -0.4410 0.5714
vn 0.7896 -0.4422 0.4255
vn 0.8567 -0.4434 0.2634
vn 0.8910 -0.4448 0.0912
vn 0.8910 -0.4462 -0.0843
vn 0.8567 -0.4475 -0.2564
vn 0.7896 -0.4488 -0.4185
vn 0.6921 -0.4499 -0.5645
vn 0.5680 -0.4509 -0.6886
vn 0.4220 -0.4516 -0.7861
vn 0.2599 -0.4522 -0.8532
vn 0.0878 -0.4524 -0.8875
vn -0.0878 -0.4524 -0.8875
vn -0.2599 -0.4522 -0.8532
vn -0.4220 -0.4516 -0.7861
vn -0.5680 -0.4509 -0.6886
vn -0.6921 -0.4499 -0.5645
vn -0.7896 -0.4488 -0.4185
vn -0.8567 -0.4475 -0.2564
vn -0.8910 -0.4462 -0.0843
vn -0.8910 -0.4448 0.0912
vn -0.8567 -0.4434 0.2634
vn -0.7896 -0.4422 0.4255
vn -0.6921 -0.4410 0.5714
vn -0.5680 -0.4401 0.6955
vn -0.4220 -0.4393 0.7930
vn -0.2599 -0.4388 0.8602
vn -0.0878 -0.4385 0.8944
vn 0.0000 1.0000 -0.0078
usemtl None
s off
f 67//67 68//67 69//67
f 69//68 68//68 70//68
f 70//69 68//69 71//69
f 71//70 68//70 72//70
f 72//71 68//71 73//71
f 73//72 68//72 74//72
f 74//73 68//73 75//73
f 75//74 68//74 76//74
f 76//75 68//75 77//75
f 77//76 68//76 78//76
f 78//77 68//77 79//77
f 79//78 68//78 80//78
f 80//79 68//79 81//79
f 81//80 68//80 82//80
f 82//81 68//81 83//81
f 83//82 68//82 84//82
f 84//83 68//83 85//83
f 85//84 68//84 86//84
f 86//85 68//85 87//85
f 87//86 68//86 88//86
f 88//87 68//87 89//87
f 89//88 68//88 90//88
f 90//89 68//89 91//89
f 91//90 68//90 92//90
f 92//91 68//91 93//91
f 93//92 68//92 94//92
f 94//93 68//93 95//93
f 95//94 68//94 96//94
f 96//95 68//95 97//95
f 97//96 68//96 98//96
f 98//97 68//97 99//97
f 99//98 68//98 67//98
f 67//99 69//99 70//99 71//99 72//99 73//99 74//99 75//99 76//99 77//99 78//99 79//99 80//99 81//99 82//99 83//99 84//99 85//99 86//99 87//99 88//99 89//99 90//99 91//99 92//99 93//99 94//99 95//99 96//99 97//99 98//99 99//99
o Cone
v -1.476832 3.658747 0.682690
v -1.476832 5.658747 1.682690
v -1.281741 3.658747 0.701904
v -1.094148 3.658747 0.758810
v -0.921261 3.658747 0.851220
v -0.769725 3.658747 0.975583
v -0.645362 3.658747 1.127120
v -0.552952 3.658747 1.300006
v -0.496046 3.658747 1.487599
v -0.476832 3.658747 1.682690
v -0.496046 3.658747 1.877780
v -0.552952 3.658747 2.065373
v -0.645362 3.658747 2.238260
v -0.769725 3.658747 2.389796
v -0.921261 3.658747 2.514159
v -1.094148 3.658747 2.606569
v -1.281742 3.658747 2.663475
v -1.476832 3.658747 2.682690
v -1.671922 3.658747 2.663475
v -1.859516 3.658747 2.606569
v -2.032403 3.658747 2.514159
v -2.183939 3.658747 2.389796
v -2.308302 3.658747 2.238259
v -2.400712 3.658747 2.065372
v -2.457617 3.658747 1.877779
v -2.476832 3.658747 1.682689
v -2.457617 3.658747 1.487598
v -2.400711 3.658747 1.300005
v -2.308300 3.658747 1.127118
v -2.183938 3.658747 0.975582
v -2.032401 3.658747 0.851219
v -1.859514 3.658747 0.758810
v -1.671921 3.658747 0.701904
vn 0.0878 0.4455 -0.8910
vn 0.2599 0.4455 -0.8567
vn 0.4220 0.4455 -0.7896
vn 0.5680 0.4455 -0.6921
vn 0.6921 0.4455 -0.5680
vn 0.7896 0.4455 -0.4220
vn 0.8567 0.4455 -0.2599
vn 0.8910 0.4455 -0.0878
vn 0.8910 0.4455 0.0878
vn 0.8567 0.4455 0.2599
vn 0.7896 0.4455 0.4220
vn 0.6921 0.4455 0.5680
vn 0.5680 0.4455 0.6921
vn 0.4220 0.4455 0.7896
vn 0.2599 0.4455 0.8567
vn 0.0878 0.4455 0.8910
vn -0.0878 0.4455 0.8910
vn -0.2599 0.4455 0.8567
vn -0.4220 0.4455 0.7896
vn -0.5680 0.4455 0.6921
vn -0.6921 0.4455 0.5680
vn -0.7896 0.4455 0.4220
vn -0.8567 0.4455 0.2599
vn -0.8910 0.4455 0.0878
vn -0.8910 0.4455 -0.0878
vn -0.8567 0.4455 -0.2599
vn -0.7896 0.4455 -0.4220
vn -0.6921 0.4455 -0.5680
vn -0.5680 0.4455 -0.6921
vn -0.4220 0.4455 -0.7896
vn -0.2599 0.4455 -0.8567
vn -0.0878 0.4455 -0.8910
vn 0.0000 -1.0000 0.0000
usemtl None
s off
f 100//100 101//100 102//100
f 102//101 101//101 103//101
f 103//102 101//102 104//102
f 104//103 101//103 105//103
f 105//104 101//104 106//104
f 106//105 101//105 107//105
f 107//106 101//106 108//106
f 108//107 101//107 109//107
f 109//108 101//108 110//108
f 110//109 101//109 111//109
f 111//110 101//110 112//110
f 112//111 101//111 113//111
f 113//112 101//112 114//112
f 114//113 101//113 115//113
f 115//114 101//114 116//114
f 116//115 101//115 117//115
f 117//116 101//116 118//116
f 118//117 101//117 119//117
f 119//118 101//118 120//118
f 120//119 101//119 121//119
f 121//120 101//120 122//120
f 122//121 101//121 123//121
f 123//122 101//122 124//122
f 124//123 101//123 125//123
f 125//124 101//124 126//124
f 126//125 101//125 127//125
f 127//126 101//126 128//126
f 128//127 101//127 129//127
f 129//128 101//128 130//128
f 130//129 101//129 131//129
f 131//130 101//130 132//130
f 132//131 101//131 100//131
f 100//132 102//132 103//132 104//132 105//132 106//132 107//132 108//132 109//132 110//132 111//132 112//132 113//132 114//132 115//132 116//132 117//132 118//132 119//132 120//132 121//132 122//132 123//132 124//132 125//132 126//132 127//132 128//132 129//132 130//132 131//132 132//132
o Cube_Cube.001
v -2.476832 1.622586 2.682690
v -2.476832 3.622586 2.682690
v -2.476832 1.622586 0.682690
v -2.476832 3.622586 0.682690
v -0.476832 1.622586 2.682690
v -0.476832 3.622586 2.682690
v -0.476832 1.622586 0.682690
v -0.476832 3.622586 0.682690
vn -1.0000 0.0000 0.0000
vn 0.0000 0.0000 -1.0000
vn 1.0000 0.0000 0.0000
vn 0.0000 0.0000 1.0000
vn 0.0000 -1.0000 0.0000
vn 0.0000 1.0000 0.0000
usemtl None
s off
f 133//133 134//133 136//133 135//133
f 135//134 136//134 140//134 139//134
f 139//135 140//135 138//135 137//135
f 137//136 138//136 134//136 133//136
f 135//137 139//137 137//137 133//137
f 140//138 136//138 134//138 138//138
