# Blender v2.79 (sub 0) OBJ File: 'pared.blend'
# www.blender.org
mtllib pared.mtl
o Cube.015_Cube.017
v 0.975297 -0.025152 1.014066
v 0.975297 -0.025152 3.014066
v -1.024703 -0.025152 3.014066
v -1.024702 -0.025152 1.014065
v 0.975298 1.974848 1.014066
v 0.975297 1.974848 3.014066
v -1.024703 1.974848 3.014065
v -1.024703 1.974848 1.014066
vn 0.0000 -1.0000 0.0000
vn 0.0000 1.0000 0.0000
vn 1.0000 0.0000 0.0000
vn -0.0000 -0.0000 1.0000
vn -1.0000 -0.0000 -0.0000
vn 0.0000 0.0000 -1.0000
usemtl Material
s off
f 1//1 2//1 3//1 4//1
f 5//2 8//2 7//2 6//2
f 1//3 5//3 6//3 2//3
f 2//4 6//4 7//4 3//4
f 3//5 7//5 8//5 4//5
f 5//6 1//6 4//6 8//6
o Cube.014_Cube.016
v 0.977501 1.967825 1.033465
v 0.977501 1.967825 3.033465
v -1.022500 1.967825 3.033464
v -1.022499 1.967825 1.033464
v 0.977501 3.967825 1.033465
v 0.977500 3.967825 3.033465
v -1.022500 3.967825 3.033464
v -1.022499 3.967825 1.033465
vn 0.0000 -1.0000 0.0000
vn 0.0000 1.0000 0.0000
vn 1.0000 0.0000 0.0000
vn -0.0000 -0.0000 1.0000
vn -1.0000 -0.0000 -0.0000
vn 0.0000 0.0000 -1.0000
usemtl Material
s off
f 9//7 10//7 11//7 12//7
f 13//8 16//8 15//8 14//8
f 9//9 13//9 14//9 10//9
f 10//10 14//10 15//10 11//10
f 11//11 15//11 16//11 12//11
f 13//12 9//12 12//12 16//12
o Cube.013_Cube.015
v 0.989395 5.984656 1.061885
v 0.989395 5.984656 3.061885
v -1.010605 5.984656 3.061884
v -1.010605 5.984656 1.061884
v 0.989395 7.984656 1.061885
v 0.989394 7.984656 3.061885
v -1.010605 7.984656 3.061884
v -1.010605 7.984656 1.061885
vn 0.0000 -1.0000 -0.0000
vn 0.0000 1.0000 0.0000
vn 1.0000 0.0000 0.0000
vn -0.0000 -0.0000 1.0000
vn -1.0000 -0.0000 -0.0000
vn 0.0000 0.0000 -1.0000
usemtl Material
s off
f 17//13 18//13 19//13 20//13
f 21//14 24//14 23//14 22//14
f 17//15 21//15 22//15 18//15
f 18//16 22//16 23//16 19//16
f 19//17 23//17 24//17 20//17
f 21//18 17//18 20//18 24//18
o Cube.012_Cube.014
v 0.987192 3.991680 1.042485
v 0.987192 3.991680 3.042485
v -1.012808 3.991680 3.042485
v -1.012808 3.991680 1.042485
v 0.987192 5.991680 1.042486
v 0.987191 5.991680 3.042486
v -1.012808 5.991680 3.042485
v -1.012808 5.991680 1.042485
vn 0.0000 -1.0000 -0.0000
vn 0.0000 1.0000 0.0000
vn 1.0000 0.0000 0.0000
vn -0.0000 -0.0000 1.0000
vn -1.0000 -0.0000 -0.0000
vn 0.0000 0.0000 -1.0000
usemtl Material
s off
f 25//19 26//19 27//19 28//19
f 29//20 32//20 31//20 30//20
f 25//21 29//21 30//21 26//21
f 26//22 30//22 31//22 27//22
f 27//23 31//23 32//23 28//23
f 29//24 25//24 28//24 32//24
o Cube.011_Cube.013
v 0.998593 3.963184 3.052279
v 0.998593 3.963184 5.052279
v -1.001407 3.963184 5.052279
v -1.001407 3.963184 3.052279
v 0.998593 5.963184 3.052280
v 0.998592 5.963184 5.052280
v -1.001407 5.963184 5.052279
v -1.001407 5.963184 3.052279
vn 0.0000 -1.0000 -0.0000
vn 0.0000 1.0000 0.0000
vn 1.0000 0.0000 0.0000
vn 0.0000 -0.0000 1.0000
vn -1.0000 -0.0000 -0.0000
vn 0.0000 0.0000 -1.0000
usemtl Material
s off
f 33//25 34//25 35//25 36//25
f 37//26 40//26 39//26 38//26
f 33//27 37//27 38//27 34//27
f 34//28 38//28 39//28 35//28
f 35//29 39//29 40//29 36//29
f 37//30 33//30 36//30 40//30
o Cube.010_Cube.012
v 1.000796 5.956161 3.071679
v 1.000796 5.956161 5.071679
v -0.999204 5.956161 5.071679
v -0.999204 5.956161 3.071679
v 1.000797 7.956161 3.071680
v 1.000795 7.956161 5.071680
v -0.999204 7.956161 5.071679
v -0.999204 7.956161 3.071679
vn 0.0000 -1.0000 -0.0000
vn 0.0000 1.0000 0.0000
vn 1.0000 0.0000 0.0000
vn 0.0000 -0.0000 1.0000
vn -1.0000 -0.0000 -0.0000
vn 0.0000 0.0000 -1.0000
usemtl Material
s off
f 41//31 42//31 43//31 44//31
f 45//32 48//32 47//32 46//32
f 41//33 45//33 46//33 42//33
f 42//34 46//34 47//34 43//34
f 43//35 47//35 48//35 44//35
f 45//36 41//36 44//36 48//36
o Cube.009_Cube.011
v 0.988902 1.939329 3.043259
v 0.988902 1.939329 5.043259
v -1.011098 1.939329 5.043259
v -1.011098 1.939329 3.043258
v 0.988902 3.939329 3.043259
v 0.988901 3.939329 5.043259
v -1.011099 3.939329 5.043258
v -1.011098 3.939329 3.043259
vn 0.0000 -1.0000 0.0000
vn 0.0000 1.0000 0.0000
vn 1.0000 0.0000 0.0000
vn 0.0000 -0.0000 1.0000
vn -1.0000 -0.0000 -0.0000
vn 0.0000 0.0000 -1.0000
usemtl Material
s off
f 49//37 50//37 51//37 52//37
f 53//38 56//38 55//38 54//38
f 49//39 53//39 54//39 50//39
f 50//40 54//40 55//40 51//40
f 51//41 55//41 56//41 52//41
f 53//42 49//42 52//42 56//42
o Cube.008_Cube.010
v 0.986699 -0.053647 3.023860
v 0.986699 -0.053647 5.023860
v -1.013302 -0.053647 5.023860
v -1.013301 -0.053647 3.023860
v 0.986699 1.946353 3.023860
v 0.986698 1.946353 5.023860
v -1.013302 1.946353 5.023860
v -1.013301 1.946353 3.023860
vn 0.0000 -1.0000 0.0000
vn 0.0000 1.0000 0.0000
vn 1.0000 0.0000 0.0000
vn 0.0000 -0.0000 1.0000
vn -1.0000 -0.0000 -0.0000
vn 0.0000 0.0000 -1.0000
usemtl Material
s off
f 57//43 58//43 59//43 60//43
f 61//44 64//44 63//44 62//44
f 57//45 61//45 62//45 58//45
f 58//46 62//46 63//46 59//46
f 59//47 63//47 64//47 60//47
f 61//48 57//48 60//48 64//48
o Cube.007_Cube.009
v 0.978597 -0.031710 -1.008701
v 0.978597 -0.031710 0.991299
v -1.021403 -0.031710 0.991299
v -1.021403 -0.031710 -1.008701
v 0.978598 1.968290 -1.008700
v 0.978596 1.968290 0.991300
v -1.021403 1.968290 0.991299
v -1.021403 1.968290 -1.008701
vn 0.0000 -1.0000 0.0000
vn 0.0000 1.0000 0.0000
vn 1.0000 0.0000 0.0000
vn -0.0000 -0.0000 1.0000
vn -1.0000 -0.0000 -0.0000
vn 0.0000 0.0000 -1.0000
usemtl Material
s off
f 65//49 66//49 67//49 68//49
f 69//50 72//50 71//50 70//50
f 65//51 69//51 70//51 66//51
f 66//52 70//52 71//52 67//52
f 67//53 71//53 72//53 68//53
f 69//54 65//54 68//54 72//54
o Cube.006_Cube.008
v 0.980800 1.961266 -0.989302
v 0.980800 1.961266 1.010698
v -1.019200 1.961266 1.010698
v -1.019199 1.961266 -0.989302
v 0.980801 3.961266 -0.989301
v 0.980800 3.961266 1.010699
v -1.019200 3.961266 1.010698
v -1.019200 3.961266 -0.989302
vn 0.0000 -1.0000 -0.0000
vn 0.0000 1.0000 0.0000
vn 1.0000 0.0000 0.0000
vn -0.0000 -0.0000 1.0000
vn -1.0000 -0.0000 -0.0000
vn 0.0000 0.0000 -1.0000
usemtl Material
s off
f 73//55 74//55 75//55 76//55
f 77//56 80//56 79//56 78//56
f 73//57 77//57 78//57 74//57
f 74//58 78//58 79//58 75//58
f 75//59 79//59 80//59 76//59
f 77//60 73//60 76//60 80//60
o Cube.005_Cube.007
v 0.992695 5.978098 -0.960882
v 0.992695 5.978098 1.039118
v -1.007306 5.978098 1.039118
v -1.007305 5.978098 -0.960882
v 0.992695 7.978098 -0.960881
v 0.992694 7.978098 1.039119
v -1.007306 7.978098 1.039118
v -1.007305 7.978098 -0.960882
vn 0.0000 -1.0000 -0.0000
vn 0.0000 1.0000 0.0000
vn 1.0000 0.0000 0.0000
vn -0.0000 -0.0000 1.0000
vn -1.0000 -0.0000 -0.0000
vn 0.0000 0.0000 -1.0000
usemtl Material
s off
f 81//61 82//61 83//61 84//61
f 85//62 88//62 87//62 86//62
f 81//63 85//63 86//63 82//63
f 82//64 86//64 87//64 83//64
f 83//65 87//65 88//65 84//65
f 85//66 81//66 84//66 88//66
o Cube.004_Cube.006
v 0.990491 3.985121 -0.980281
v 0.990491 3.985121 1.019719
v -1.009509 3.985121 1.019719
v -1.009508 3.985121 -0.980281
v 0.990492 5.985121 -0.980280
v 0.990491 5.985121 1.019720
v -1.009509 5.985121 1.019719
v -1.009508 5.985121 -0.980281
vn 0.0000 -1.0000 0.0000
vn 0.0000 1.0000 0.0000
vn 1.0000 0.0000 0.0000
vn -0.0000 -0.0000 1.0000
vn -1.0000 -0.0000 -0.0000
vn 0.0000 0.0000 -1.0000
usemtl Material
s off
f 89//67 90//67 91//67 92//67
f 93//68 96//68 95//68 94//68
f 89//69 93//69 94//69 90//69
f 90//70 94//70 95//70 91//70
f 91//71 95//71 96//71 92//71
f 93//72 89//72 92//72 96//72
o Cube.003_Cube.005
v 0.979090 4.013617 -2.990075
v 0.979090 4.013617 -0.990075
v -1.020910 4.013617 -0.990075
v -1.020909 4.013617 -2.990075
v 0.979091 6.013617 -2.990074
v 0.979090 6.013617 -0.990074
v -1.020910 6.013617 -0.990075
v -1.020910 6.013617 -2.990075
vn 0.0000 -1.0000 -0.0000
vn 0.0000 1.0000 0.0000
vn 1.0000 0.0000 0.0000
vn -0.0000 -0.0000 1.0000
vn -1.0000 -0.0000 -0.0000
vn 0.0000 0.0000 -1.0000
usemtl Material
s off
f 97//73 98//73 99//73 100//73
f 101//74 104//74 103//74 102//74
f 97//75 101//75 102//75 98//75
f 98//76 102//76 103//76 99//76
f 99//77 103//77 104//77 100//77
f 101//78 97//78 100//78 104//78
o Cube.000_Cube.004
v 0.981294 6.006593 -2.970676
v 0.981294 6.006593 -0.970676
v -1.018707 6.006593 -0.970676
v -1.018706 6.006593 -2.970676
v 0.981294 8.006594 -2.970675
v 0.981293 8.006594 -0.970675
v -1.018707 8.006594 -0.970676
v -1.018706 8.006594 -2.970676
vn 0.0000 -1.0000 -0.0000
vn 0.0000 1.0000 0.0000
vn 1.0000 0.0000 0.0000
vn -0.0000 -0.0000 1.0000
vn -1.0000 -0.0000 -0.0000
vn 0.0000 0.0000 -1.0000
usemtl Material
s off
f 105//79 106//79 107//79 108//79
f 109//80 112//80 111//80 110//80
f 105//81 109//81 110//81 106//81
f 106//82 110//82 111//82 107//82
f 107//83 111//83 112//83 108//83
f 109//84 105//84 108//84 112//84
o Cube.002
v 0.969399 1.989762 -2.999096
v 0.969399 1.989762 -0.999096
v -1.030601 1.989762 -0.999096
v -1.030601 1.989762 -2.999096
v 0.969400 3.989762 -2.999095
v 0.969398 3.989762 -0.999095
v -1.030601 3.989762 -0.999096
v -1.030601 3.989762 -2.999096
vn 0.0000 -1.0000 -0.0000
vn 0.0000 1.0000 0.0000
vn 1.0000 0.0000 0.0000
vn -0.0000 -0.0000 1.0000
vn -1.0000 -0.0000 -0.0000
vn 0.0000 0.0000 -1.0000
usemtl Material
s off
f 113//85 114//85 115//85 116//85
f 117//86 120//86 119//86 118//86
f 113//87 117//87 118//87 114//87
f 114//88 118//88 119//88 115//88
f 115//89 119//89 120//89 116//89
f 117//90 113//90 116//90 120//90
o Cube.001
v 0.967196 -0.003215 -3.018495
v 0.967196 -0.003215 -1.018495
v -1.032804 -0.003215 -1.018495
v -1.032804 -0.003215 -3.018495
v 0.967196 1.996785 -3.018494
v 0.967195 1.996785 -1.018494
v -1.032804 1.996785 -1.018495
v -1.032804 1.996785 -3.018495
vn 0.0000 -1.0000 0.0000
vn 0.0000 1.0000 0.0000
vn 1.0000 0.0000 0.0000
vn -0.0000 -0.0000 1.0000
vn -1.0000 -0.0000 -0.0000
vn 0.0000 0.0000 -1.0000
usemtl Material
s off
f 121//91 122//91 123//91 124//91
f 125//92 128//92 127//92 126//92
f 121//93 125//93 126//93 122//93
f 122//94 126//94 127//94 123//94
f 123//95 127//95 128//95 124//95
f 125//96 121//96 124//96 128//96
