# Blender v2.79 (sub 0) OBJ File: ''
# www.blender.org
mtllib pareddeprueba.mtl
o Cube
v 1.000000 0.027064 -7.995816
v 1.000000 0.027064 7.979512
v -1.000000 0.027064 7.979512
v -1.000000 0.027064 -7.995817
v 1.000000 16.779057 -7.995816
v 0.999999 16.779057 7.979512
v -1.000000 16.779057 7.979511
v -1.000000 16.779057 -7.995816
v 0.212358 1.244372 -3.069102
v 0.212358 1.494272 -3.069102
v 0.212358 1.244372 -7.641437
v 0.212358 1.494272 -7.641437
v 2.212358 1.244372 -3.069102
v 2.212358 1.494272 -3.069102
v 2.212358 1.244372 -7.641437
v 2.212358 1.494272 -7.641437
v 0.272246 2.905847 -2.514884
v 0.272246 3.155747 -2.514884
v 0.272246 2.905847 -2.942943
v 0.272246 3.155747 -2.942943
v 2.272246 2.905847 -2.514884
v 2.272246 3.155747 -2.514884
v 2.272246 2.905847 -2.942943
v 2.272246 3.155747 -2.942943
v 0.041536 4.112350 -0.375522
v 0.041536 4.362250 -0.375522
v 0.041536 4.112350 -0.803581
v 0.041536 4.362250 -0.803581
v 2.041536 4.112350 -0.375522
v 2.041536 4.362250 -0.375522
v 2.041536 4.112350 -0.803581
v 2.041536 4.362250 -0.803581
v 0.032802 5.544210 -4.422844
v 0.032802 5.794110 -4.422844
v 0.032802 5.544210 -4.850903
v 0.032802 5.794110 -4.850903
v 2.032803 5.544210 -4.422844
v 2.032803 5.794110 -4.422844
v 2.032803 5.544210 -4.850903
v 2.032803 5.794110 -4.850903
v 0.722910 7.242335 1.980205
v 0.722910 7.492235 1.980205
v 0.722910 7.242335 1.552146
v 0.722910 7.492235 1.552146
v 2.722910 7.242335 1.980205
v 2.722910 7.492235 1.980205
v 2.722910 7.242335 1.552146
v 2.722910 7.492235 1.552146
v 0.882425 2.736493 2.800814
v 0.882425 2.986394 2.800814
v 0.882425 2.736493 2.372756
v 0.882425 2.986394 2.372756
v 2.882425 2.736493 2.800814
v 2.882425 2.986394 2.800814
v 2.882425 2.736493 2.372756
v 2.882425 2.986394 2.372756
v 0.882425 2.736493 2.800814
v 0.882425 2.986394 2.800814
v 0.882425 2.736493 1.401245
v 0.882425 2.986394 1.401245
v 2.882425 2.736493 2.800814
v 2.882425 2.986394 2.800814
v 2.882425 2.736493 1.401245
v 2.882425 2.986394 1.401245
v 0.926754 5.034900 4.656785
v 0.926754 5.284800 4.656785
v 0.926754 5.034900 4.228726
v 0.926754 5.284800 4.228726
v 2.926754 5.034900 4.656785
v 2.926754 5.284800 4.656785
v 2.926754 5.034900 4.228726
v 2.926754 5.284800 4.228726
v 0.926754 5.034900 4.656785
v 0.926754 5.284800 4.656785
v 0.926754 5.034900 4.228726
v 0.926754 5.284800 4.228726
v 2.926754 5.034900 4.656785
v 2.926754 5.284800 4.656785
v 2.926754 5.034900 4.228726
v 2.926754 5.284800 4.228726
v 0.926754 6.611166 6.854989
v 0.926754 6.861066 6.854989
v 0.926754 6.611166 6.426930
v 0.926754 6.861066 6.426930
v 2.926754 6.611166 6.854989
v 2.926754 6.861066 6.854989
v 2.926754 6.611166 6.426930
v 2.926754 6.861066 6.426930
v -0.074135 8.404381 4.658965
v -0.074135 8.654282 4.658965
v -0.074135 8.404381 4.230906
v -0.074135 8.654282 4.230906
v 1.925865 8.404381 4.658965
v 1.925865 8.654282 4.658965
v 1.925865 8.404381 4.230906
v 1.925865 8.654282 4.230906
v -0.991844 9.807763 1.815400
v -0.991844 10.057663 1.815400
v -0.991844 9.807763 1.387341
v -0.991844 10.057663 1.387341
v 1.839347 9.807763 1.815400
v 1.839347 10.057663 1.815400
v 1.839347 9.807763 1.387341
v 1.839347 10.057663 1.387341
v -0.045976 9.444105 -1.553444
v -0.045976 9.694005 -1.553444
v -0.045976 9.444105 -1.981502
v -0.045976 9.694005 -1.981502
v 1.954024 9.444105 -1.553444
v 1.954024 9.694005 -1.553444
v 1.954024 9.444105 -1.981502
v 1.954024 9.694005 -1.981502
v -0.875626 11.036483 -5.594251
v -0.875626 11.286382 -5.594251
v -0.875626 11.036483 -6.022310
v -0.875626 11.286382 -6.022310
v -0.045976 11.933740 -4.411533
v -0.045976 12.183640 -4.411533
v -0.045976 11.933740 -4.839592
v -0.045976 12.183640 -4.839592
v 1.954024 11.933740 -4.411533
v 1.954024 12.183640 -4.411533
v 1.954024 11.933740 -4.839592
v 1.954024 12.183640 -4.839592
v 0.165889 12.815525 -2.225823
v 0.165889 13.065425 -2.225823
v 0.165889 12.815525 -2.653882
v 0.165889 13.065425 -2.653882
v 2.165889 12.815525 -2.225823
v 2.165889 13.065425 -2.225823
v 2.165889 12.815525 -2.653882
v 2.165889 13.065425 -2.653882
v 0.692518 8.774779 -4.345061
v 0.692518 9.024679 -4.345061
v 0.692518 8.774779 -4.773120
v 0.692518 9.024679 -4.773120
v 2.692519 8.774779 -4.345061
v 2.692519 9.024679 -4.345061
v 2.692519 8.774779 -4.773120
v 2.692519 9.024679 -4.773120
v 0.040431 9.884119 -6.870924
v 0.040431 10.134019 -6.870924
v 0.040431 9.884119 -7.298983
v 0.040431 10.134019 -7.298983
v 2.040431 9.884119 -6.870924
v 2.040431 10.134019 -6.870924
v 2.040431 9.884119 -7.298983
v 2.040431 10.134019 -7.298983
v -0.442584 13.250100 0.680161
v -0.442584 13.500000 0.680161
v -0.442584 13.250100 0.252102
v -0.442584 13.500000 0.252102
v 1.557417 13.250100 0.680161
v 1.557417 13.500000 0.680161
v 1.557417 13.250100 0.252102
v 1.557417 13.500000 0.252102
v -0.247666 14.401803 2.653397
v -0.247666 14.651702 2.653397
v -0.247666 14.401803 2.225338
v -0.247666 14.651702 2.225338
v 1.752334 14.401803 2.653397
v 1.752334 14.651702 2.653397
v 1.752334 14.401803 2.225338
v 1.752334 14.651702 2.225338
v -0.632362 16.286608 0.995512
v -0.632362 16.536507 0.995512
v -0.632362 16.286608 -3.077181
v -0.632362 16.536507 -3.077181
v 1.367638 16.286608 0.995512
v 1.367638 16.536507 0.995512
v 1.367638 16.286608 -3.077181
v 1.367638 16.536507 -3.077181
vn 0.0000 -1.0000 -0.0000
vn 0.0000 1.0000 0.0000
vn 1.0000 0.0000 0.0000
vn -0.0000 -0.0000 1.0000
vn -1.0000 -0.0000 -0.0000
vn 0.0000 0.0000 -1.0000
usemtl Material
s off
f 1//1 2//1 3//1 4//1
f 5//2 8//2 7//2 6//2
f 1//3 5//3 6//3 2//3
f 2//4 6//4 7//4 3//4
f 3//5 7//5 8//5 4//5
f 5//6 1//6 4//6 8//6
f 9//5 10//5 12//5 11//5
f 11//6 12//6 16//6 15//6
f 15//3 16//3 14//3 13//3
f 13//4 14//4 10//4 9//4
f 11//1 15//1 13//1 9//1
f 16//2 12//2 10//2 14//2
f 19//6 20//6 24//6 23//6
f 23//3 24//3 22//3 21//3
f 21//4 22//4 18//4 17//4
f 24//2 20//2 18//2 22//2
f 27//6 28//6 32//6 31//6
f 31//3 32//3 30//3 29//3
f 29//4 30//4 26//4 25//4
f 32//2 28//2 26//2 30//2
f 35//6 36//6 40//6 39//6
f 39//3 40//3 38//3 37//3
f 37//4 38//4 34//4 33//4
f 40//2 36//2 34//2 38//2
f 43//6 44//6 48//6 47//6
f 47//3 48//3 46//3 45//3
f 45//4 46//4 42//4 41//4
f 48//2 44//2 42//2 46//2
f 51//6 52//6 56//6 55//6
f 55//3 56//3 54//3 53//3
f 53//4 54//4 50//4 49//4
f 56//2 52//2 50//2 54//2
f 59//6 60//6 64//6 63//6
f 63//3 64//3 62//3 61//3
f 61//4 62//4 58//4 57//4
f 64//2 60//2 58//2 62//2
f 67//6 68//6 72//6 71//6
f 71//3 72//3 70//3 69//3
f 69//4 70//4 66//4 65//4
f 72//2 68//2 66//2 70//2
f 75//6 76//6 80//6 79//6
f 79//3 80//3 78//3 77//3
f 77//4 78//4 74//4 73//4
f 80//2 76//2 74//2 78//2
f 83//6 84//6 88//6 87//6
f 87//3 88//3 86//3 85//3
f 85//4 86//4 82//4 81//4
f 88//2 84//2 82//2 86//2
f 91//6 92//6 96//6 95//6
f 95//3 96//3 94//3 93//3
f 93//4 94//4 90//4 89//4
f 96//2 92//2 90//2 94//2
f 99//6 100//6 104//6 103//6
f 103//3 104//3 102//3 101//3
f 101//4 102//4 98//4 97//4
f 104//2 100//2 98//2 102//2
f 107//6 108//6 112//6 111//6
f 111//3 112//3 110//3 109//3
f 109//4 110//4 106//4 105//4
f 112//2 108//2 106//2 110//2
f 115//3 116//3 114//3 113//3
f 119//6 120//6 124//6 123//6
f 123//3 124//3 122//3 121//3
f 121//4 122//4 118//4 117//4
f 124//2 120//2 118//2 122//2
f 127//6 128//6 132//6 131//6
f 131//3 132//3 130//3 129//3
f 129//4 130//4 126//4 125//4
f 132//2 128//2 126//2 130//2
f 135//6 136//6 140//6 139//6
f 139//3 140//3 138//3 137//3
f 137//4 138//4 134//4 133//4
f 140//2 136//2 134//2 138//2
f 143//6 144//6 148//6 147//6
f 147//3 148//3 146//3 145//3
f 145//4 146//4 142//4 141//4
f 148//2 144//2 142//2 146//2
f 151//6 152//6 156//6 155//6
f 155//3 156//3 154//3 153//3
f 153//4 154//4 150//4 149//4
f 156//2 152//2 150//2 154//2
f 159//6 160//6 164//6 163//6
f 163//3 164//3 162//3 161//3
f 161//4 162//4 158//4 157//4
f 164//2 160//2 158//2 162//2
f 167//6 168//6 172//6 171//6
f 171//3 172//3 170//3 169//3
f 169//4 170//4 166//4 165//4
f 172//2 168//2 166//2 170//2
